<svg width="24" height="12" viewBox="0 0 24 12" fill="none" xmlns="http://www.w3.org/2000/svg">
<path d="M17.7942 0.455808C17.5736 0.559099 17.3764 0.756292 17.3059 0.944093C17.2355 1.1319 17.2402 1.51689 17.32 1.6953C17.3576 1.77981 18.137 2.59675 19.0807 3.53576L20.7756 5.22597L10.6953 5.24945L0.610356 5.27293L0.431944 5.38561C0.333348 5.44664 0.197192 5.5828 0.126766 5.68609C0.0187802 5.84572 0 5.93023 0 6.18846C0 6.44669 0.0187802 6.5312 0.126766 6.69083C0.197192 6.79412 0.333348 6.93028 0.431944 6.99131L0.610356 7.10399L10.6953 7.12747L20.7756 7.15094L19.0807 8.84116C18.137 9.78017 17.3576 10.5971 17.32 10.6816C17.2402 10.86 17.2355 11.245 17.3059 11.4328C17.475 11.8882 18.09 12.1324 18.5313 11.9258C18.7332 11.8319 23.7147 6.93967 23.8837 6.66735C24.0433 6.40913 24.0386 5.94432 23.8696 5.69078C23.6724 5.395 18.7332 0.545014 18.5313 0.451113C18.306 0.343127 18.029 0.347822 17.7942 0.455808Z" fill="white"/>
</svg>
