<svg width="22" height="20" viewBox="0 0 22 20" fill="none" xmlns="http://www.w3.org/2000/svg">
<path fill-rule="evenodd" clip-rule="evenodd" d="M-4.37114e-07 10C-4.49993e-07 10.2946 0.0827747 10.5772 0.230115 10.7856C0.377454 10.9939 0.577293 11.111 0.785663 11.111L19.3163 11.111L14.3714 18.1011C14.2238 18.3097 14.141 18.5926 14.141 18.8876C14.141 19.1827 14.2238 19.4656 14.3714 19.6742C14.5189 19.8828 14.719 20 14.9276 20C15.1363 20 15.3363 19.8828 15.4839 19.6742L21.7692 10.7866C21.8423 10.6834 21.9004 10.5608 21.94 10.4258C21.9796 10.2908 22 10.1461 22 10C22 9.85387 21.9796 9.70918 21.94 9.57421C21.9004 9.43924 21.8423 9.31664 21.7692 9.21344L15.4839 0.325802C15.4108 0.22251 15.3241 0.140574 15.2287 0.084673C15.1332 0.0287718 15.0309 -3.04628e-07 14.9276 -3.09144e-07C14.719 -3.18263e-07 14.5189 0.117194 14.3714 0.325802C14.2238 0.534409 14.141 0.817342 14.141 1.11236C14.141 1.40737 14.2238 1.69031 14.3714 1.89891L19.3163 8.88904L0.785663 8.88904C0.577293 8.88904 0.377454 9.00609 0.230115 9.21444C0.0827747 9.42278 -4.24235e-07 9.70536 -4.37114e-07 10Z" fill="white"/>
</svg>
