<svg width="22" height="23" viewBox="0 0 22 23" fill="none" xmlns="http://www.w3.org/2000/svg">
<path d="M2.19545 0.88213C1.93879 0.972391 1.75545 1.12132 1.61795 1.35149L1.48962 1.5636L1.47587 3.98712L1.46212 6.41516L1.10004 6.68594C0.710455 6.97929 0.453789 7.27715 0.252122 7.6743C-0.00912724 8.18428 3.94159e-05 7.9135 3.94159e-05 15.4955V22.4817H0.366705H0.733371L0.742538 15.4052L0.756288 8.33321L0.861705 8.07145C0.930454 7.90898 1.06795 7.71041 1.2192 7.55245L1.46212 7.2952L1.4667 9.41183C1.4667 10.8966 1.48045 11.5781 1.5217 11.7045C1.64545 12.1152 2.10379 12.4356 2.56212 12.4356C2.98837 12.4311 3.08462 12.3679 3.98753 11.4924C4.45503 11.0411 4.88128 10.6439 4.93628 10.6168C5.28003 10.4408 5.77044 10.6935 5.84836 11.0862C5.90794 11.3976 5.83919 11.5059 5.20211 12.1468C4.86753 12.4807 4.55586 12.8282 4.51003 12.914C4.43211 13.0539 4.41836 13.2118 4.40003 14.3807C4.36336 16.1363 4.41836 16.0009 3.3367 16.9983C3.12587 17.1924 3.02962 17.3232 2.98837 17.4541C2.94712 17.5895 2.93337 18.3116 2.93337 20.0627V22.4817H3.30003H3.6667V21.0375V19.5933L7.69086 19.5843L11.7196 19.5708L11.9442 19.4354C12.0817 19.3496 12.2192 19.2142 12.3063 19.0788L12.4438 18.8577L12.4575 17.057L12.4713 15.2608H12.9479C13.2138 15.2608 13.4292 15.2743 13.4292 15.2879C13.4292 15.3014 13.4063 15.4548 13.3788 15.6263C13.3054 16.1047 13.3879 16.6147 13.6217 17.0841C13.7958 17.4316 13.8829 17.5218 15.1663 18.7855C16.4221 20.0176 16.5504 20.1304 16.8667 20.2793C17.2608 20.4643 17.5771 20.5411 17.9667 20.5411C19.305 20.5411 20.3958 19.467 20.3958 18.1491C20.3958 17.7655 20.3179 17.4496 20.13 17.066C19.9879 16.7772 19.855 16.6192 19.2317 15.9919L18.5029 15.2608H20.2538H22V10.2061V5.15149H17.2333H12.4713L12.4575 3.35529L12.4438 1.55458L12.3063 1.33344C12.2192 1.19805 12.0817 1.06265 11.9442 0.976904L11.7196 0.841513L7.04003 0.832485C3.29545 0.82346 2.32837 0.832485 2.19545 0.88213ZM11.6188 1.65387L11.7334 1.76218V3.45909V5.15149H11.3667H11V3.70731V2.26313H6.96669H2.93337V6.88V11.5014L2.81878 11.6052C2.65837 11.7541 2.44753 11.7451 2.30545 11.5871L2.20004 11.4653V6.61373V1.76218L2.31462 1.65387L2.42462 1.54104H6.96669H11.5088L11.6188 1.65387ZM10.2667 4.13154V5.27786L10.0421 5.42228C9.73044 5.61634 9.50585 5.87359 9.33169 6.23012L9.18961 6.52798V10.3641V14.2002L9.30419 14.4259C9.45086 14.7192 9.7396 14.999 10.0329 15.1299L10.2667 15.2382V15.6083V15.9829H7.64961H5.03253L5.06461 15.8791C5.08295 15.8249 5.11503 15.2066 5.12878 14.5071L5.15628 13.2389L5.77961 12.6116C6.51753 11.8669 6.62294 11.6774 6.59086 11.1313C6.54503 10.4137 6.02253 9.89925 5.29836 9.85412C4.80795 9.82704 4.54211 9.93986 4.05628 10.3957L3.6667 10.7567V6.87098V2.98522H6.96669H10.2667V4.13154ZM21.2667 6.95672V8.03986L15.9592 8.03084L10.6471 8.0173L10.4225 7.8819C10.285 7.79615 10.1475 7.66076 10.0604 7.52537C9.94127 7.3268 9.92294 7.26361 9.92294 6.96124C9.92294 6.66789 9.94127 6.58665 10.0513 6.40613C10.1888 6.17596 10.3721 6.02703 10.6288 5.93677C10.7617 5.89164 11.8709 5.8781 16.0325 5.87359H21.2667V6.95672ZM10.4592 8.6762C10.7204 8.75744 10.9863 8.76195 16.0004 8.76195H21.2667V9.47953V10.2016L19.7908 10.2152L18.3104 10.2287L18.0217 10.3821C17.7008 10.5536 17.5588 10.6981 17.38 11.0365C17.2792 11.2306 17.2608 11.3254 17.2608 11.6503C17.2608 11.9753 17.2792 12.07 17.38 12.2641C17.5588 12.6026 17.7008 12.747 18.0217 12.9185L18.3104 13.0719L19.7908 13.0855L21.2667 13.099V13.8211V14.5387H19.5204H17.7742L17.4946 14.286C16.4496 13.3517 15.0196 13.3517 14.0663 14.2769L13.7958 14.5387H12.1459C10.3034 14.5387 10.2804 14.5342 10.0559 14.2408L9.92294 14.0738L9.90919 11.2306L9.90002 8.39188L10.0421 8.49117C10.12 8.54984 10.3079 8.63107 10.4592 8.6762ZM21.2667 11.6503V12.3724H19.9146C18.4113 12.3724 18.3425 12.3634 18.1317 12.0926C17.9163 11.8083 17.9163 11.4517 18.1363 11.1945C18.3563 10.9418 18.4113 10.9327 19.9054 10.9282H21.2667V11.6503ZM16.4633 14.4574C16.8254 14.6199 17.1142 14.8997 17.2929 15.2563C17.4258 15.527 17.4396 15.5902 17.4396 15.9829C17.4396 16.3755 17.4258 16.4387 17.2929 16.7095C17.1142 17.066 16.8254 17.3413 16.4633 17.5083C16.2388 17.6121 16.1425 17.6301 15.7667 17.6301C15.3908 17.6301 15.2946 17.6121 15.07 17.5083C14.7079 17.3413 14.4192 17.066 14.2404 16.7095C14.1075 16.4387 14.0938 16.3755 14.0938 15.9829C14.0938 15.6128 14.1121 15.518 14.2129 15.3014C14.4283 14.8546 14.7996 14.5297 15.2763 14.3762C15.5833 14.2769 16.1471 14.3175 16.4633 14.4574ZM11.7334 16.9532V18.6501L11.6188 18.7584L11.5088 18.8712H7.58544H3.6667V18.2665C3.6667 17.5805 3.65295 17.6166 4.10212 17.2781C4.25337 17.1698 4.44128 16.9938 4.51461 16.89L4.65211 16.705H7.82836H11V15.9829V15.2608H11.3667H11.7334V16.9532ZM18.4754 16.5876C18.9154 17.9776 17.3158 19.2548 16.0508 18.5237C15.9408 18.4651 15.8583 18.4064 15.8675 18.3974C15.8767 18.3883 16.0371 18.3477 16.225 18.3116C17.2792 18.095 17.9896 17.3368 18.1729 16.2311L18.205 16.0551L18.2921 16.1634C18.3379 16.2266 18.425 16.4161 18.4754 16.5876ZM19.5296 17.5308C19.6763 17.8603 19.6808 18.4244 19.5342 18.79C19.3967 19.133 19.0758 19.4715 18.7275 19.652C18.4663 19.7874 18.4204 19.7964 17.9667 19.7964C17.5313 19.7964 17.4579 19.7829 17.2242 19.67C16.9217 19.5256 16.8896 19.4579 17.1142 19.4579C17.49 19.4579 18.2142 19.133 18.5533 18.8126C18.8971 18.4876 19.1813 17.9145 19.2729 17.3684C19.3096 17.1518 19.3783 17.1969 19.5296 17.5308Z" fill="#C41D1D"/>
</svg>
